<svg width="166" height="115" viewBox="0 0 166 115" fill="none" xmlns="http://www.w3.org/2000/svg">
<path d="M85.9561 93.973C85.4123 96.507 84.5002 98.967 82.7536 101.061C79.0424 105.51 68.5147 109.321 64.6573 102.886C63.5887 101.103 62.9473 98.509 63.938 96.5875C65.028 94.474 68.1298 93.7108 69.9548 95.5603C72.6003 98.2416 68.6392 102.201 66.1473 103.529C64.9352 104.176 63.6039 104.656 62.2384 104.965C54.0431 106.822 49.7118 98.9134 49.6526 92.7478C49.627 90.0595 50.2116 87.29 51.4317 84.8403" stroke="#0F172A" stroke-width="2" stroke-miterlimit="1.5" stroke-linecap="round" stroke-linejoin="round"/>
<path d="M50.6521 85.4752C50.1083 88.0092 49.1962 90.4692 47.4497 92.5628C43.7385 97.0124 33.2107 100.823 29.3533 94.3883C28.2847 92.6054 27.6433 90.0113 28.6341 88.0897C29.724 85.9762 32.8259 85.2131 34.6508 87.0625C37.2964 89.7438 33.3353 93.7027 30.8433 95.0315C29.6312 95.6779 28.2999 96.1584 26.9345 96.4676C18.7392 98.3246 14.4079 90.4157 14.3487 84.25C14.3231 81.5617 14.9076 78.7922 16.1277 76.3425" stroke="#0F172A" stroke-width="2" stroke-miterlimit="1.5" stroke-linecap="round" stroke-linejoin="round"/>
<path d="M122.085 93.8763C122.346 96.4464 122.231 99.038 121.202 101.487C119.014 106.692 110.082 112.996 104.387 107.785C102.809 106.341 101.391 104.011 101.748 101.917C102.141 99.6131 104.884 98.1012 107.209 99.4191C110.579 101.33 107.999 106.127 106.017 108.028C105.053 108.954 103.923 109.749 102.708 110.389C95.4115 114.231 88.8052 107.723 86.8409 101.817C85.9847 99.2412 85.6893 96.4347 86.1032 93.7757" stroke="#0F172A" stroke-width="2" stroke-miterlimit="1.5" stroke-linecap="round" stroke-linejoin="round"/>
<path d="M141.782 67.88C144.356 69.0122 146.755 70.4455 148.545 72.5095C152.348 76.8956 153.693 87.0456 145.794 88.7277C143.605 89.1937 140.658 89.0769 138.857 87.7152C136.875 86.2172 136.864 83.3202 139.321 82.2136C142.883 80.6094 146.095 85.0852 146.871 87.5988C147.248 88.8214 147.417 90.1046 147.393 91.3729C147.252 98.9857 137.649 100.697 131.026 99.1444C128.138 98.4674 125.322 97.2385 123.014 95.5399" stroke="#0F172A" stroke-width="2" stroke-miterlimit="1.5" stroke-linecap="round" stroke-linejoin="round"/>
<path d="M146.213 35.7266C149.076 35.7985 151.919 36.2099 154.495 37.4227C159.971 39.9996 165.853 48.7404 159.433 53.2145C157.654 54.4541 154.917 55.4455 152.652 54.8767C150.16 54.2509 148.82 51.6172 150.55 49.6944C153.057 46.9071 158.035 49.7858 159.895 51.7854C160.8 52.7581 161.542 53.8636 162.103 55.0273C165.467 62.0117 157.509 67.1465 150.766 68.2003C147.826 68.6596 144.698 68.5896 141.817 67.9027" stroke="#0F172A" stroke-width="2" stroke-miterlimit="1.5" stroke-linecap="round" stroke-linejoin="round"/>
<path d="M82.3805 22.0021C83.1895 19.5263 84.3574 17.1557 86.3172 15.2214C90.4818 11.1104 101.364 8.22027 104.524 14.9564C105.4 16.8229 105.764 19.4602 104.575 21.2881C103.266 23.2985 100.098 23.7921 98.4768 21.7945C96.1266 18.8985 100.488 15.2973 103.109 14.1883C104.384 13.6489 105.76 13.2847 107.152 13.094C115.506 11.9484 118.982 20.1929 118.39 26.3356C118.131 29.0139 117.257 31.7207 115.783 34.0546" stroke="#0F172A" stroke-width="2" stroke-miterlimit="1.5" stroke-linecap="round" stroke-linejoin="round"/>
<path d="M117.559 23.5816C118.369 21.1057 119.536 18.7351 121.496 16.8009C125.661 12.6898 136.543 9.79974 139.703 16.5359C140.579 18.4024 140.943 21.0397 139.754 22.8675C138.445 24.878 135.277 25.3716 133.656 23.374C131.306 20.4779 135.667 16.8768 138.288 15.7678C139.563 15.2283 140.939 14.8641 142.331 14.6734C150.685 13.5279 154.161 21.7724 153.569 27.9151C153.31 30.5934 152.435 33.3002 150.962 35.6341" stroke="#0F172A" stroke-width="2" stroke-miterlimit="1.5" stroke-linecap="round" stroke-linejoin="round"/>
<path d="M46.4042 19.0004C46.4152 16.4195 46.8034 13.8495 48.0872 11.4997C50.8149 6.50579 60.3721 0.997256 65.4907 6.67289C66.9088 8.24555 68.0747 10.6868 67.498 12.7409C66.8635 15.0002 63.9733 16.27 61.7984 14.7587C58.6454 12.5676 61.7199 8.01389 63.8939 6.29063C64.9514 5.45239 66.1603 4.75708 67.438 4.22436C75.1068 1.02619 80.9955 8.07101 82.3268 14.1191C82.907 16.7562 82.9046 19.5753 82.2116 22.1867" stroke="#0F172A" stroke-width="2" stroke-miterlimit="1.5" stroke-linecap="round" stroke-linejoin="round"/>
<path d="M24.0482 43.1895C21.6053 41.8416 19.3685 40.209 17.8054 38.0009C14.4828 33.3085 14.2162 23.0892 22.2572 22.0923C24.4851 21.8162 27.4063 22.1852 29.0559 23.6952C30.8701 25.3564 30.575 28.2412 28.0125 29.1321C24.2975 30.4234 21.5726 25.6924 21.0659 23.1237C20.8194 21.8743 20.787 20.5824 20.9446 19.3219C21.89 11.7559 31.6296 10.8764 38.0586 12.9896C40.8616 13.9112 43.535 15.3761 45.653 17.265" stroke="#0F172A" stroke-width="2" stroke-miterlimit="1.5" stroke-linecap="round" stroke-linejoin="round"/>
<path d="M16.2403 74.8147C13.3974 74.4974 10.6116 73.8441 8.17503 72.4158C2.99657 69.381 -1.93567 60.1754 4.92842 56.2722C6.83035 55.1909 9.65949 54.4387 11.8544 55.1992C14.2686 56.0359 15.3237 58.7726 13.3992 60.5383C10.6092 63.0979 5.95713 59.8053 4.31701 57.6552C3.5192 56.6094 2.89693 55.4452 2.46205 54.2387C-0.149057 46.9974 8.31557 42.5685 15.1391 42.0978C18.1142 41.8928 21.2206 42.2308 24.0158 43.1617" stroke="#0F172A" stroke-width="2" stroke-miterlimit="1.5" stroke-linecap="round" stroke-linejoin="round"/>
</svg>
