<svg width="185" height="53" viewBox="0 0 185 53" fill="none" xmlns="http://www.w3.org/2000/svg">
<path d="M15.6 3.304C19.152 3.304 22.256 4.008 24.912 5.416C27.568 6.824 29.616 8.808 31.056 11.368C32.528 13.896 33.264 16.824 33.264 20.152C33.264 23.448 32.528 26.376 31.056 28.936C29.616 31.496 27.552 33.48 24.864 34.888C22.208 36.296 19.12 37 15.6 37H2.976V3.304H15.6ZM15.072 29.896C18.176 29.896 20.592 29.048 22.32 27.352C24.048 25.656 24.912 23.256 24.912 20.152C24.912 17.048 24.048 14.632 22.32 12.904C20.592 11.176 18.176 10.312 15.072 10.312H11.184V29.896H15.072ZM67.035 3.304V37H58.827V23.128H46.059V37H37.851V3.304H46.059V16.504H58.827V3.304H67.035ZM112.316 3.304V37H104.108V23.128H91.3403V37H83.1323V3.304H91.3403V16.504H104.108V3.304H112.316ZM126.306 3.304V23.464C126.306 25.48 126.802 27.032 127.794 28.12C128.786 29.208 130.242 29.752 132.162 29.752C134.082 29.752 135.554 29.208 136.578 28.12C137.602 27.032 138.114 25.48 138.114 23.464V3.304H146.322V23.416C146.322 26.424 145.682 28.968 144.402 31.048C143.122 33.128 141.394 34.696 139.218 35.752C137.074 36.808 134.674 37.336 132.018 37.336C129.362 37.336 126.978 36.824 124.866 35.8C122.786 34.744 121.138 33.176 119.922 31.096C118.706 28.984 118.098 26.424 118.098 23.416V3.304H126.306ZM180.981 3.304L169.317 25.864V37H161.109V25.864L149.445 3.304H158.757L165.285 17.416L171.765 3.304H180.981Z" fill="white"/>
<path d="M75.816 52.009C74.376 52.009 73.192 51.593 72.264 50.761C71.368 49.897 70.92 48.841 70.92 47.593C70.92 46.313 71.368 45.241 72.264 44.377C73.192 43.513 74.376 43.081 75.816 43.081C77.224 43.081 78.376 43.513 79.272 44.377C80.2 45.241 80.664 46.313 80.664 47.593C80.664 48.841 80.2 49.897 79.272 50.761C78.376 51.593 77.224 52.009 75.816 52.009Z" fill="#CA2D2D"/>
</svg>
