<svg width="185" height="47" viewBox="0 0 185 47" fill="none" xmlns="http://www.w3.org/2000/svg">
<path d="M15.6 8.304C19.152 8.304 22.256 9.008 24.912 10.416C27.568 11.824 29.616 13.808 31.056 16.368C32.528 18.896 33.264 21.824 33.264 25.152C33.264 28.448 32.528 31.376 31.056 33.936C29.616 36.496 27.552 38.48 24.864 39.888C22.208 41.296 19.12 42 15.6 42H2.976V8.304H15.6ZM15.072 34.896C18.176 34.896 20.592 34.048 22.32 32.352C24.048 30.656 24.912 28.256 24.912 25.152C24.912 22.048 24.048 19.632 22.32 17.904C20.592 16.176 18.176 15.312 15.072 15.312H11.184V34.896H15.072ZM67.035 8.304V42H58.827V28.128H46.059V42H37.851V8.304H46.059V21.504H58.827V8.304H67.035ZM112.316 8.304V42H104.108V28.128H91.3403V42H83.1323V8.304H91.3403V21.504H104.108V8.304H112.316ZM126.306 8.304V28.464C126.306 30.48 126.802 32.032 127.794 33.12C128.786 34.208 130.242 34.752 132.162 34.752C134.082 34.752 135.554 34.208 136.578 33.12C137.602 32.032 138.114 30.48 138.114 28.464V8.304H146.322V28.416C146.322 31.424 145.682 33.968 144.402 36.048C143.122 38.128 141.394 39.696 139.218 40.752C137.074 41.808 134.674 42.336 132.018 42.336C129.362 42.336 126.978 41.824 124.866 40.8C122.786 39.744 121.138 38.176 119.922 36.096C118.706 33.984 118.098 31.424 118.098 28.416V8.304H126.306ZM180.981 8.304L169.317 30.864V42H161.109V30.864L149.445 8.304H158.757L165.285 22.416L171.765 8.304H180.981Z" fill="#0F172A"/>
<path d="M74.816 46.384C73.376 46.384 72.192 45.968 71.264 45.136C70.368 44.272 69.92 43.216 69.92 41.968C69.92 40.688 70.368 39.616 71.264 38.752C72.192 37.888 73.376 37.456 74.816 37.456C76.224 37.456 77.376 37.888 78.272 38.752C79.2 39.616 79.664 40.688 79.664 41.968C79.664 43.216 79.2 44.272 78.272 45.136C77.376 45.968 76.224 46.384 74.816 46.384Z" fill="#CA2D2D"/>
</svg>
