<svg width="131" height="130" viewBox="0 0 131 130" fill="none" xmlns="http://www.w3.org/2000/svg">
<path d="M101.676 28.8889H29.0503V101.111H101.676V28.8889Z" fill="#F7DF1E"/>
<path d="M77.8363 85.3129C79.2992 87.6882 81.2024 89.4341 84.5686 89.4341C87.3964 89.4341 89.2028 88.0287 89.2028 86.0867C89.2028 83.7595 87.3468 82.9353 84.2343 81.5814L82.5281 80.8534C77.6034 78.767 74.3318 76.1533 74.3318 70.6277C74.3318 65.5377 78.2317 61.663 84.3265 61.663C88.6656 61.663 91.785 63.1647 94.033 67.0968L88.7186 70.4901C87.5485 68.4037 86.2862 67.5817 84.3265 67.5817C82.3276 67.5817 81.0606 68.8428 81.0606 70.4901C81.0606 72.5261 82.3287 73.3504 85.2568 74.6114L86.9629 75.3382C92.7614 77.8109 96.0354 80.3318 96.0354 85.9996C96.0354 92.1098 91.2086 95.4572 84.7265 95.4572C78.3885 95.4572 74.2938 92.4537 72.2902 88.517L77.8363 85.3129ZM53.728 85.901C54.8001 87.7925 55.7754 89.3917 58.1201 89.3917C60.3623 89.3917 61.7768 88.5193 61.7768 85.1272V62.0504H68.6013V85.2189C68.6013 92.2462 64.4582 95.4446 58.4106 95.4446C52.9464 95.4446 49.782 92.6325 48.1727 89.2455L53.728 85.901Z" fill="white"/>
</svg>
