<svg width="131" height="130" viewBox="0 0 131 130" fill="none" xmlns="http://www.w3.org/2000/svg">
<path fill-rule="evenodd" clip-rule="evenodd" d="M44.1349 36.2335C39.991 36.2335 36.9246 39.8404 37.062 43.752C37.1937 47.5099 37.0225 52.377 35.7904 56.3461C34.554 60.3264 32.4643 62.8487 29.0503 63.1724V66.8275C32.4643 67.152 34.554 69.673 35.7903 73.6538C37.0225 77.6229 37.1936 82.49 37.0618 86.248C36.9245 90.159 39.9908 93.7664 44.1354 93.7664H86.5969C90.7409 93.7664 93.8066 90.1595 93.6693 86.248C93.5375 82.49 93.7087 77.6229 94.9408 73.6538C96.1773 69.673 98.2619 67.151 101.676 66.8275V63.1724C98.262 62.848 96.1774 60.327 94.9408 56.3461C93.7086 52.3776 93.5375 47.5099 93.6693 43.752C93.8066 39.841 90.7409 36.2335 86.5969 36.2335H44.1343H44.1349ZM78.2881 71.6488C78.2881 77.0348 74.2482 80.3013 67.5438 80.3013H56.131C55.8046 80.3013 55.4915 80.1724 55.2606 79.9428C55.0298 79.7132 54.9001 79.4019 54.9001 79.0772V50.9228C54.9001 50.5982 55.0298 50.2868 55.2606 50.0573C55.4915 49.8277 55.8046 49.6987 56.131 49.6987H67.4788C73.0691 49.6987 76.738 52.7101 76.738 57.3334C76.738 60.5785 74.2699 63.4836 71.1255 63.9925V64.1618C75.4059 64.6287 78.2881 67.5768 78.2881 71.6488ZM66.2993 53.5791H59.792V62.7198H65.2728C69.5098 62.7198 71.846 61.0231 71.846 57.9905C71.8456 55.1484 69.837 53.5791 66.2993 53.5791ZM59.792 66.3465V76.4197H66.5388C70.9502 76.4197 73.2869 74.6594 73.2869 71.3513C73.2869 68.0432 70.8847 66.346 66.2551 66.346H59.792V66.3465Z" fill="#7952B3"/>
</svg>
