<svg width="131" height="130" viewBox="0 0 131 130" fill="none" xmlns="http://www.w3.org/2000/svg">
<path d="M65.3632 71.3674C68.8994 71.3674 71.766 68.5166 71.766 65.0001C71.766 61.4835 68.8994 58.6328 65.3632 58.6328C61.827 58.6328 58.9603 61.4835 58.9603 65.0001C58.9603 68.5166 61.827 71.3674 65.3632 71.3674Z" fill="#61DAFB"/>
<path fill-rule="evenodd" clip-rule="evenodd" d="M35.2571 61.6497C33.8051 62.9532 33.3278 64.0897 33.3278 65C33.3278 65.9104 33.8051 67.0468 35.2571 68.3503C36.7081 69.6529 38.9387 70.9322 41.8933 72.0541C47.786 74.2915 56.0833 75.7237 65.3631 75.7237C74.643 75.7237 82.9402 74.2915 88.833 72.0541C91.7875 70.9322 94.0182 69.6529 95.4692 68.3503C96.9212 67.0468 97.3985 65.9104 97.3985 65C97.3985 64.0897 96.9212 62.9532 95.4692 61.6497C94.0182 60.3471 91.7875 59.0678 88.833 57.9459C82.9402 55.7085 74.643 54.2763 65.3631 54.2763C56.0833 54.2763 47.786 55.7085 41.8933 57.9459C38.9387 59.0678 36.7081 60.3471 35.2571 61.6497ZM40.2452 53.6054C46.7871 51.1215 55.6683 49.6334 65.3631 49.6334C75.058 49.6334 83.9391 51.1215 90.4811 53.6054C93.7439 54.8443 96.5446 56.376 98.5707 58.1948C100.596 60.0127 102.041 62.308 102.041 65C102.041 67.692 100.596 69.9873 98.5707 71.8052C96.5446 73.6241 93.7439 75.1557 90.4811 76.3946C83.9391 78.8785 75.058 80.3666 65.3631 80.3666C55.6683 80.3666 46.7871 78.8785 40.2452 76.3946C36.9824 75.1557 34.1816 73.6241 32.1555 71.8052C30.1304 69.9873 28.6849 67.692 28.6849 65C28.6849 62.308 30.1304 60.0127 32.1555 58.1948C34.1816 56.376 36.9824 54.8443 40.2452 53.6054Z" fill="#61DAFB"/>
<path fill-rule="evenodd" clip-rule="evenodd" d="M53.2465 37.4021C51.3877 36.8041 50.153 36.9583 49.3503 37.4191C48.5477 37.88 47.796 38.8662 47.3874 40.766C46.9788 42.666 46.9799 45.2249 47.4799 48.3284C48.4772 54.5186 51.3772 62.3772 56.0158 70.3668C60.6543 78.3563 66.0481 84.7832 70.9403 88.7371C73.393 90.7194 75.6209 92 77.4798 92.598C79.3386 93.196 80.5733 93.0418 81.3759 92.581C82.1786 92.1201 82.9302 91.1339 83.3389 89.2341C83.7475 87.3341 83.7463 84.7751 83.2463 81.6717C82.249 75.4815 79.349 67.6229 74.7105 59.6333C70.0719 51.6438 64.6781 45.2169 59.786 41.2629C57.3333 39.2806 55.1054 38.0001 53.2465 37.4021ZM62.7126 37.6683C68.1495 42.0626 73.8881 48.9699 78.7369 57.3216C83.5857 65.6733 86.7317 74.0691 87.8401 80.9485C88.3929 84.3799 88.4594 87.5596 87.8883 90.2149C87.3172 92.8703 86.0416 95.2559 83.7071 96.5962C81.3726 97.9365 78.6573 97.8423 76.0592 97.0065C73.4613 96.1707 70.7255 94.5236 68.0136 92.3318C62.5767 87.9375 56.8382 81.0302 51.9894 72.6785C47.1406 64.3268 43.9945 55.931 42.8862 49.0515C42.3334 45.6201 42.2668 42.4405 42.8379 39.7852C43.4091 37.1298 44.6847 34.7442 47.0192 33.4039C49.3537 32.0636 52.069 32.1578 54.667 32.9936C57.265 33.8294 60.0008 35.4765 62.7126 37.6683Z" fill="#61DAFB"/>
<path fill-rule="evenodd" clip-rule="evenodd" d="M83.3388 40.7661C82.9302 38.8663 82.1786 37.88 81.3759 37.4192C80.5733 36.9583 79.3386 36.8041 77.4798 37.4021C75.6209 38.0002 73.3929 39.2807 70.9403 41.263C66.0481 45.217 60.6543 51.6438 56.0158 59.6334C51.3772 67.6229 48.4772 75.4816 47.4799 81.6718C46.9799 84.7752 46.9787 87.3342 47.3874 89.2341C47.796 91.1339 48.5476 92.1202 49.3503 92.581C50.1529 93.0418 51.3877 93.196 53.2464 92.598C55.1054 92 57.3333 90.7195 59.7859 88.7372C64.6781 84.7832 70.0719 78.3564 74.7105 70.3668C79.349 62.3772 82.249 54.5186 83.2463 48.3284C83.7463 45.225 83.7475 42.666 83.3388 40.7661ZM87.8401 49.0516C86.7317 55.931 83.5857 64.3268 78.7369 72.6785C73.8881 81.0303 68.1495 87.9375 62.7126 92.3318C60.0007 94.5236 57.265 96.1707 54.667 97.0065C52.0689 97.8423 49.3536 97.9365 47.0192 96.5962C44.6847 95.2559 43.4091 92.8703 42.8379 90.2149C42.2668 87.5596 42.3333 84.38 42.8862 80.9486C43.9945 74.0691 47.1405 65.6734 51.9893 57.3216C56.8382 48.9699 62.5767 42.0626 68.0136 37.6684C70.7255 35.4766 73.4612 33.8294 76.0592 32.9937C78.6573 32.1578 81.3726 32.0636 83.7071 33.4039C86.0415 34.7443 87.3171 37.1298 87.8883 39.7852C88.4594 42.4405 88.3929 45.6202 87.8401 49.0516Z" fill="#61DAFB"/>
</svg>
