<svg width="130" height="130" viewBox="0 0 130 130" fill="none" xmlns="http://www.w3.org/2000/svg">
<path d="M65 43.3392C55.3701 43.3392 49.3517 48.1528 46.944 57.7791C50.5556 52.9655 54.7686 51.1611 59.5831 52.3641C62.3304 53.0504 64.2938 55.0436 66.4676 57.249C70.0078 60.8416 74.1052 64.9995 83.056 64.9995C92.6851 64.9995 98.7043 60.1859 101.111 50.5587C97.5005 55.3723 93.2874 57.1777 88.472 55.9747C85.7256 55.2883 83.7623 53.2952 81.5885 51.0898C78.0483 47.4972 73.9499 43.3392 65 43.3392ZM46.944 64.9995C37.315 64.9995 31.2957 69.8131 28.8889 79.4403C32.4996 74.6267 36.7126 72.8214 41.528 74.0253C44.2744 74.7125 46.2378 76.7048 48.4116 78.9093C51.9518 82.5019 56.0501 86.6608 65 86.6608C74.63 86.6608 80.6483 81.8471 83.056 72.2199C79.4445 77.0335 75.2314 78.8389 70.4169 77.635C67.6696 76.9496 65.7063 74.9555 63.5325 72.751C59.9922 69.1584 55.8948 64.9995 46.944 64.9995Z" fill="#06B6D4"/>
</svg>
