<svg width="130" height="130" viewBox="0 0 130 130" fill="none" xmlns="http://www.w3.org/2000/svg">
<path d="M91.0779 69.0546C88.5583 69.0678 86.3685 69.6747 84.5348 70.5717C83.862 69.2393 83.1893 68.0521 83.0706 67.1814C82.9386 66.1657 82.7803 65.5457 82.9386 64.332C83.0969 63.1184 83.8093 61.3903 83.7961 61.2584C83.7829 61.1264 83.6378 60.5064 82.1867 60.4932C80.7356 60.4801 79.4824 60.7703 79.3373 61.1528C79.1922 61.5354 78.9152 62.406 78.7305 63.3031C78.4799 64.6222 75.8283 69.3317 74.3113 71.7985C73.8232 70.8355 73.4011 69.9912 73.3087 69.3185C73.1768 68.3027 73.0185 67.6827 73.1768 66.4691C73.3351 65.2554 74.0475 63.5273 74.0343 63.3954C74.0211 63.2635 73.876 62.6435 72.4249 62.6303C70.9738 62.6171 69.7206 62.9073 69.5755 63.2899C69.4304 63.6724 69.2721 64.5695 68.9687 65.4401C68.6652 66.3108 65.1431 74.173 64.2197 76.2045C63.7448 77.2467 63.3358 78.0777 63.0456 78.645C63.0456 78.645 63.0324 78.6846 62.9928 78.7505C62.7422 79.2386 62.5971 79.5024 62.5971 79.5024C62.5971 79.5024 62.5971 79.5024 62.5971 79.5156C62.3992 79.8718 62.1881 80.2016 62.0826 80.2016C62.0035 80.2016 61.8584 79.2518 62.109 77.959C62.6367 75.2283 63.8899 70.9806 63.8767 70.8355C63.8767 70.7564 64.1141 70.0176 63.0588 69.6351C62.0298 69.2525 61.6605 69.8857 61.5681 69.8857C61.4758 69.8857 61.4098 70.11 61.4098 70.11C61.4098 70.11 62.5575 65.3346 59.22 65.3346C57.1357 65.3346 54.26 67.6167 52.8353 69.6746C51.9382 70.1627 50.0254 71.2049 47.9807 72.3262C47.2024 72.7615 46.3977 73.1968 45.6458 73.6058C45.593 73.553 45.5403 73.487 45.4875 73.4343C41.4508 69.1206 33.9844 66.0733 34.301 60.2822C34.4197 58.1715 35.1452 52.631 48.6403 45.9033C59.7477 40.4287 68.5861 41.9458 70.1163 45.3096C72.3062 50.1114 65.3805 59.029 53.9038 60.3218C49.5241 60.8098 47.2288 59.1213 46.6484 58.4881C46.0415 57.8285 45.9492 57.789 45.7249 57.9209C45.3556 58.1187 45.593 58.7124 45.7249 59.0554C46.0679 59.9524 47.4794 61.5354 49.8671 62.3137C51.9778 62.9997 57.1094 63.3822 63.3226 60.9813C70.2746 58.2902 75.7096 50.8106 74.1134 44.5445C72.5172 38.1861 61.9639 36.0887 51.9778 39.6372C46.0415 41.7479 39.604 45.0722 34.9737 49.3991C29.4728 54.5438 28.6022 59.0158 28.9583 60.889C30.2379 67.5376 39.4061 71.8645 43.0734 75.07C42.8887 75.1756 42.7172 75.2679 42.5721 75.3471C40.7385 76.2573 33.7469 79.9114 32.0056 83.7765C30.0269 88.1562 32.3222 91.2958 33.8393 91.7179C38.5487 93.0239 43.39 90.6758 45.9888 86.7974C48.5875 82.9191 48.2709 77.8799 47.0705 75.5713C47.0573 75.5449 47.0441 75.5186 47.0177 75.4922C47.4926 75.2151 47.9807 74.9249 48.4556 74.6479C49.3922 74.0939 50.3156 73.5794 51.1071 73.1572C50.6586 74.3841 50.3288 75.8483 50.1705 77.959C49.9727 80.439 50.9884 83.6578 52.3208 84.9242C52.9144 85.4783 53.6136 85.4915 54.0621 85.4915C55.6187 85.4915 56.3179 84.1987 57.0962 82.6684C58.046 80.7952 58.9034 78.6186 58.9034 78.6186C58.9034 78.6186 57.8349 84.5021 60.7371 84.5021C61.7924 84.5021 62.8609 83.1301 63.3358 82.431C63.3358 82.4442 63.3358 82.4442 63.3358 82.4442C63.3358 82.4442 63.3622 82.4046 63.415 82.3123C63.5205 82.1408 63.5865 82.0352 63.5865 82.0352C63.5865 82.0352 63.5865 82.0221 63.5865 82.0089C64.0086 81.2701 64.9584 79.5948 66.3699 76.8113C68.1904 73.2232 69.9448 68.738 69.9448 68.738C69.9448 68.738 70.1031 69.833 70.644 71.6534C70.9606 72.7219 71.6202 73.896 72.1479 75.0305C71.7257 75.6241 71.4619 75.9539 71.4619 75.9539C71.4619 75.9539 71.4619 75.9539 71.4751 75.9671C71.1321 76.4156 70.7627 76.9037 70.3538 77.3786C68.9159 79.0935 67.201 81.0591 66.9635 81.6263C66.6865 82.2991 66.7525 82.7872 67.2801 83.1829C67.6627 83.4731 68.3486 83.5127 69.0478 83.4731C70.3406 83.3808 71.2508 83.0642 71.6993 82.8663C72.3985 82.6157 73.2164 82.2331 73.9815 81.6659C75.393 80.6237 76.2505 79.1331 76.1713 77.1675C76.1317 76.0858 75.7756 75.0041 75.3402 73.9883C75.4721 73.8036 75.5909 73.619 75.7228 73.4343C77.9522 70.1759 79.6803 66.601 79.6803 66.601C79.6803 66.601 79.8386 67.6959 80.3795 69.5163C80.6433 70.4398 81.1841 71.4423 81.659 72.4185C79.5616 74.1202 78.2688 76.099 77.8071 77.3918C76.976 79.7927 77.6224 80.8744 78.8492 81.125C79.4033 81.2437 80.1948 80.9799 80.7752 80.7293C81.5139 80.4918 82.3846 80.0829 83.2157 79.4761C84.6272 78.4339 85.9859 76.9828 85.9068 75.0173C85.8672 74.1202 85.6297 73.2364 85.2999 72.3789C87.0808 71.6402 89.3762 71.2313 92.3047 71.5742C98.584 72.313 99.824 76.2309 99.5865 77.8799C99.3491 79.5288 98.0299 80.4259 97.5946 80.7029C97.1593 80.9799 97.0141 81.0723 97.0537 81.2701C97.1065 81.5603 97.3176 81.5471 97.6869 81.4944C98.2014 81.402 100.985 80.162 101.104 77.1279C101.301 73.2496 97.6078 69.0151 91.0779 69.0546ZM42.6381 85.3859C40.5538 87.6549 37.6516 88.5124 36.3984 87.7868C35.0529 87.0085 35.5806 83.6578 38.1397 81.2569C39.6964 79.7927 41.7015 78.4339 43.0338 77.6028C43.3373 77.4182 43.7858 77.1543 44.3266 76.8245C44.419 76.7718 44.4717 76.7454 44.4717 76.7454C44.5773 76.6794 44.6828 76.6135 44.7883 76.5475C45.7249 79.9773 44.8279 82.9982 42.6381 85.3859ZM57.8085 75.07C57.083 76.8377 55.5659 81.3625 54.6425 81.1118C53.851 80.9008 53.3629 77.4709 54.4842 74.0807C55.0515 72.3789 56.2519 70.3474 56.951 69.5559C58.0855 68.2895 59.3387 67.8674 59.6422 68.3819C60.0247 69.0546 58.257 73.9619 57.8085 75.07ZM70.3274 81.0591C70.024 81.2174 69.7338 81.3229 69.6019 81.2437C69.5095 81.191 69.7338 80.9799 69.7338 80.9799C69.7338 80.9799 71.3036 79.2914 71.9236 78.5263C72.2798 78.0777 72.7019 77.5501 73.1504 76.9564C73.1504 77.0092 73.1504 77.0752 73.1504 77.1279C73.1504 79.1463 71.1981 80.505 70.3274 81.0591ZM79.9837 78.856C79.7594 78.6977 79.799 78.1701 80.5509 76.5211C80.8412 75.8747 81.5271 74.793 82.7012 73.7509C82.8331 74.173 82.9254 74.5819 82.9123 74.9645C82.8991 77.5105 81.0786 78.4603 79.9837 78.856Z" fill="#CD6799"/>
</svg>
