<svg width="130" height="130" viewBox="0 0 130 130" fill="none" xmlns="http://www.w3.org/2000/svg">
<path d="M96.8409 28.8889L91.0394 93.8814L64.961 101.111L38.9545 93.8915L33.1591 28.8889H96.8409Z" fill="#264DE4"/>
<path d="M86.0726 89.7429L91.0304 34.2039H65V95.585L86.0726 89.7429Z" fill="#2965F1"/>
<path d="M46.4449 58.3124L47.1595 66.2846H65V58.3124H46.4449Z" fill="#EBEBEB"/>
<path d="M65 42.1761H64.9725H45.0093L45.734 50.1485H65V42.1761Z" fill="#EBEBEB"/>
<path d="M65 87.3117V79.0172L64.9651 79.0265L56.0863 76.629L55.5187 70.2708H51.2043H47.5157L48.6327 82.7884L64.9633 87.3219L65 87.3117Z" fill="#EBEBEB"/>
<path d="M74.7894 66.2845L73.864 76.624L64.9724 79.0239V87.3181L81.3161 82.7885L81.436 81.4416L83.3094 60.4531L83.5039 58.3123L84.9432 42.1761H64.9724V50.1485H76.2062L75.4808 58.3123H64.9724V66.2845H74.7894Z" fill="white"/>
</svg>
