<svg width="130" height="130" viewBox="0 0 130 130" fill="none" xmlns="http://www.w3.org/2000/svg">
<path d="M28.8889 28.8889H101.111V101.111H28.8889V28.8889Z" fill="#017ACB"/>
<path d="M63.5669 55.6337H67.0313V61.6146H57.665V88.224L57.4167 88.2917C57.0782 88.382 52.6207 88.382 51.6615 88.2804L50.8942 88.2127V61.6146H41.5278V55.6337L44.4957 55.5999C46.1207 55.5773 50.2961 55.5773 53.7718 55.5999C57.2475 55.6224 61.6485 55.6337 63.5669 55.6337ZM90.0071 85.4028C88.6303 86.8585 87.152 87.671 84.692 88.3368C83.6199 88.6302 83.4394 88.6415 81.0244 88.6302C78.6095 88.6189 78.4177 88.6189 77.244 88.3143C74.2084 87.5356 71.7597 86.0122 70.0895 83.8568C69.6156 83.2474 68.8369 81.9835 68.8369 81.8255C68.8369 81.7804 68.9498 81.6788 69.0965 81.6111C69.2432 81.5434 69.5478 81.3516 69.7961 81.2049C70.0444 81.0582 70.4958 80.7873 70.8005 80.6294C71.1051 80.4714 71.9854 79.9523 72.7527 79.4896C73.5201 79.0269 74.2197 78.6545 74.2987 78.6545C74.3777 78.6545 74.5244 78.8125 74.6373 79.0044C75.3144 80.1441 76.8942 81.5998 78.0114 82.0964C78.6998 82.3898 80.2232 82.717 80.9567 82.717C81.6338 82.717 82.8751 82.4236 83.5409 82.1189C84.2519 81.7917 84.613 81.4644 85.0418 80.8099C85.3352 80.3472 85.3691 80.2231 85.3578 79.3429C85.3578 78.5304 85.3126 78.3047 85.0869 77.9323C84.455 76.8941 83.5974 76.3525 80.1217 74.8177C76.5331 73.2266 74.9194 72.2787 73.6104 71.0035C72.6399 70.0556 72.448 69.796 71.8387 68.6111C71.0487 67.0877 70.9472 66.5912 70.9359 64.3229C70.9246 62.7318 70.9584 62.2127 71.1277 61.671C71.3647 60.8585 72.1321 59.29 72.4819 58.895C73.2041 58.0486 73.4637 57.7891 73.9715 57.3716C75.5062 56.1077 77.8986 55.2726 80.1894 55.1936C80.4489 55.1936 81.3065 55.2387 82.1078 55.2952C84.4099 55.487 85.9784 56.0512 87.4906 57.2587C88.6303 58.1615 90.3569 60.283 90.1876 60.5651C90.0748 60.7344 85.5722 63.7361 85.2788 63.8264C85.0982 63.8828 84.9741 63.8151 84.7258 63.5217C83.1911 61.6823 82.5704 61.2874 81.0809 61.1971C80.0201 61.1294 79.4558 61.2535 78.7449 61.7275C78.0001 62.224 77.639 62.9801 77.639 64.0295C77.6503 65.5643 78.2371 66.2865 80.4038 67.3585C81.8031 68.0469 82.9993 68.6111 83.0895 68.6111C83.225 68.6111 86.1251 70.0556 86.8812 70.507C90.4021 72.5721 91.8352 74.6936 92.2076 78.3498C92.4784 81.1033 91.6998 83.6198 90.0071 85.4028Z" fill="white"/>
</svg>
