<svg width="131" height="130" viewBox="0 0 131 130" fill="none" xmlns="http://www.w3.org/2000/svg">
<path d="M100.306 61.7821L68.5972 30.2509C66.7722 28.4349 63.8105 28.4349 61.9832 30.2509L55.3987 36.7989L63.7515 45.1053C65.6925 44.453 67.9184 44.8906 69.4656 46.4293C71.0203 47.9778 71.4572 50.2102 70.7854 52.1467L78.8352 60.152C80.7828 59.4848 83.0299 59.9165 84.5854 61.4659C86.7593 63.6269 86.7593 67.1294 84.5854 69.2918C82.4109 71.4545 78.8888 71.4545 76.7132 69.2918C75.078 67.664 74.674 65.2759 75.5018 63.2725L67.9947 55.8071L67.9938 75.453C68.538 75.7206 69.0351 76.074 69.4656 76.4997C71.6396 78.6607 71.6396 82.1635 69.4656 84.3276C67.2911 86.4892 63.7674 86.4892 61.596 84.3276C59.422 82.1635 59.422 78.661 61.596 76.4999C62.1169 75.9816 62.7361 75.5711 63.4176 75.2922V55.4632C62.7351 55.1862 62.1156 54.7755 61.596 54.2555C59.9488 52.6198 59.5528 50.2164 60.3968 48.2052L52.1629 40.0161L30.4205 61.6363C28.5935 63.4539 28.5935 66.3995 30.4205 68.2158L62.1302 99.7476C63.9557 101.564 66.9169 101.564 68.7448 99.7476L100.306 68.3622C102.132 66.5454 102.132 63.5981 100.306 61.7821" fill="#DE4C36"/>
</svg>
