<svg width="130" height="130" viewBox="0 0 130 130" fill="none" xmlns="http://www.w3.org/2000/svg">
<path d="M45.9304 54.6285H59.5522V55.706H47.1791V63.8154H58.8143V64.8929H47.1791V73.7963H59.6941V74.8737H45.9304V54.6285ZM60.7725 54.6285H62.2198L68.6334 63.5319L75.1889 54.6285L84.1054 43.3192L69.4564 64.4676L77.0051 74.8737H75.501L68.6334 65.4033L61.7374 74.8737H60.2617L67.8671 64.4676L60.7725 54.6285ZM77.5443 55.706V54.6285H93.0674V55.706H85.916V74.8737H84.6673V55.706H77.5443Z" fill="#0F172A"/>
<path d="M28.8889 54.6285H30.4497L51.9727 86.6808L43.0783 74.8737L30.1943 56.1597L30.1376 74.8737H28.8889V54.6285Z" fill="#0F172A"/>
<path d="M92.9416 73.4711C93.1997 73.4711 93.388 73.2744 93.388 73.0202C93.388 72.766 93.1997 72.5692 92.9416 72.5692C92.6865 72.5692 92.4951 72.766 92.4951 73.0202C92.4951 73.2744 92.6865 73.4711 92.9416 73.4711ZM94.1685 72.2848C94.1685 73.0353 94.7122 73.5256 95.5048 73.5256C96.3491 73.5256 96.8593 73.0202 96.8593 72.1425V69.0526H96.179V72.1395C96.179 72.6267 95.933 72.887 95.4987 72.887C95.11 72.887 94.8458 72.6449 94.8367 72.2848H94.1685ZM97.7492 72.2454C97.7978 73.0262 98.4507 73.5256 99.4226 73.5256C100.461 73.5256 101.111 73.002 101.111 72.1667C101.111 71.51 100.741 71.1468 99.8417 70.938L99.3588 70.82C98.7878 70.6868 98.557 70.5083 98.557 70.1966C98.557 69.8031 98.9154 69.5459 99.453 69.5459C99.9632 69.5459 100.315 69.7971 100.379 70.1996H101.041C101.002 69.4642 100.352 68.9467 99.4621 68.9467C98.5054 68.9467 97.8676 69.4642 97.8676 70.2419C97.8676 70.8835 98.229 71.2649 99.0217 71.4495L99.5866 71.5857C100.167 71.7219 100.422 71.9216 100.422 72.2545C100.422 72.6419 100.021 72.9233 99.4742 72.9233C98.8881 72.9233 98.4811 72.66 98.4234 72.2454H97.7492Z" fill="#0F172A"/>
</svg>
